Coordinates
version=1
nRows=17
nColumns=38
inDegrees=no

Units are S.I. units (second, meters, Newtons, ...)
If the header above contains a line with 'inDegrees', this indicates whether rotational values are in degrees (yes) or radians (no).

endheader
time	pelvis_tilt	pelvis_list	pelvis_rotation	pelvis_tx	pelvis_ty	pelvis_tz	hip_flexion_r	hip_adduction_r	hip_rotation_r	knee_angle_r	ankle_angle_r	subtalar_angle_r	mtp_angle_r	hip_flexion_l	hip_adduction_l	hip_rotation_l	knee_angle_l	ankle_angle_l	subtalar_angle_l	mtp_angle_l	lumbar_extension	lumbar_bending	lumbar_rotation	arm_flex_r	arm_add_r	arm_rot_r	elbow_flex_r	pro_sup_r	wrist_flex_r	wrist_dev_r	arm_flex_l	arm_add_l	arm_rot_l	elbow_flex_l	pro_sup_l	wrist_flex_l	wrist_dev_l
1.91	2.99925	1.33004	-1.27504	0.527348	1.36244	0.952074	0.249824	-0.127932	-0.225924	1.03589	-0.294776	0	0	-0.37293	-0.0586608	-0.300079	0.141389	-0.179792	0	0	-0.345994	0.103528	-0.240064	-0.214122	-0.268762	-0.165119	0.789121	0.496326	0	0	-0.0923125	-0.334985	0.0219101	0.821902	1.48935	0	0
1.92	3.00247	1.33245	-1.27716	0.526943	1.37134	0.950937	0.258102	-0.128057	-0.226692	0.991637	-0.286556	0	0	-0.382417	-0.0585222	-0.299878	0.139068	-0.174696	0	0	-0.345397	0.103484	-0.242095	-0.211218	-0.268541	-0.163618	0.79193	0.496314	0	0	-0.0807159	-0.336983	0.0237443	0.832642	1.49025	0	0
1.93	3.00623	1.3361	-1.27998	0.52662	1.38036	0.949611	0.265631	-0.128359	-0.228361	0.945258	-0.275573	0	0	-0.390273	-0.0579618	-0.299106	0.137683	-0.168857	0	0	-0.343514	0.102831	-0.243593	-0.208446	-0.268263	-0.162093	0.793969	0.496324	0	0	-0.0688133	-0.338663	0.0260648	0.842674	1.49185	0	0
1.94	3.0113	1.34103	-1.2848	0.526408	1.38946	0.948073	0.272831	-0.129106	-0.230998	0.897292	-0.262208	0	0	-0.396859	-0.0564206	-0.297721	0.136844	-0.161616	0	0	-0.340315	0.101254	-0.244409	-0.205715	-0.268112	-0.160512	0.795662	0.496538	0	0	-0.0570186	-0.339833	0.0281606	0.852019	1.49451	0	0
1.95	3.01903	1.34764	-1.29314	0.526308	1.39866	0.946289	0.2803	-0.130896	-0.234628	0.84825	-0.247938	0	0	-0.401992	-0.0534208	-0.295953	0.136327	-0.154349	0	0	-0.335463	0.0982769	-0.24444	-0.203577	-0.267901	-0.159202	0.797532	0.496371	0	0	-0.0454942	-0.340473	0.0298033	0.860866	1.49745	0	0
1.96	3.0265	1.35388	-1.30159	0.526296	1.40798	0.944489	0.285008	-0.131746	-0.238387	0.796281	-0.231872	0	0	-0.407852	-0.0506204	-0.294224	0.135555	-0.146898	0	0	-0.330872	0.0953307	-0.24385	-0.201644	-0.267962	-0.157963	0.799441	0.496022	0	0	-0.0341166	-0.340572	0.0311224	0.869159	1.50083	0	0
1.97	3.03233	1.35981	-1.30885	0.526418	1.41736	0.942683	0.287143	-0.131355	-0.242498	0.740413	-0.214878	0	0	-0.414065	-0.0483478	-0.292905	0.134871	-0.139676	0	0	-0.32661	0.0926592	-0.24247	-0.199877	-0.268131	-0.156635	0.801381	0.495028	0	0	-0.0228428	-0.340123	0.0321049	0.877065	1.50394	0	0
1.98	3.03578	1.36609	-1.31375	0.526661	1.42684	0.940857	0.287267	-0.129645	-0.247579	0.68022	-0.198698	0	0	-0.419798	-0.0467528	-0.290838	0.134057	-0.132898	0	0	-0.321829	0.0903008	-0.240724	-0.198397	-0.268052	-0.15525	0.802981	0.493033	0	0	-0.0117984	-0.339208	0.0329343	0.884203	1.50723	0	0
1.99	3.0351	1.3717	-1.3148	0.526994	1.43642	0.939128	0.283826	-0.125332	-0.252227	0.614869	-0.184883	0	0	-0.426009	-0.0463126	-0.289009	0.133176	-0.126309	0	0	-0.317626	0.0889568	-0.238366	-0.197266	-0.268218	-0.153493	0.804791	0.489531	0	0	-0.00113419	-0.337677	0.0332741	0.890803	1.51183	0	0
2	3.03109	1.37641	-1.31238	0.527417	1.44606	0.937529	0.276508	-0.118588	-0.255215	0.543996	-0.176122	0	0	-0.432242	-0.0471398	-0.288081	0.133383	-0.120592	0	0	-0.314311	0.0884981	-0.235871	-0.196134	-0.268768	-0.151238	0.806466	0.484505	0	0	0.00896938	-0.336038	0.0334795	0.897351	1.51777	0	0
2.01	3.02305	1.38095	-1.30548	0.527908	1.45578	0.935979	0.266659	-0.109935	-0.254983	0.468539	-0.173146	0	0	-0.437129	-0.0495712	-0.288543	0.136355	-0.115544	0	0	-0.310987	0.0888807	-0.233675	-0.195171	-0.269392	-0.148628	0.808033	0.47889	0	0	0.0182985	-0.334354	0.0336872	0.903887	1.52354	0	0
2.02	3.01071	1.38424	-1.29335	0.52841	1.4656	0.934584	0.252105	-0.0991045	-0.249931	0.3877	-0.177602	0	0	-0.442061	-0.054007	-0.289664	0.141424	-0.110463	0	0	-0.308728	0.0906352	-0.232282	-0.194252	-0.270307	-0.145058	0.809624	0.4723	0	0	0.0266091	-0.332402	0.0330224	0.910566	1.53063	0	0
2.03	2.99493	1.3861	-1.27711	0.528997	1.47558	0.933373	0.235238	-0.0874272	-0.243815	0.312496	-0.184122	0	0	-0.447603	-0.0601358	-0.290369	0.147847	-0.10619	0	0	-0.307636	0.0934506	-0.231593	-0.193334	-0.271034	-0.141523	0.810986	0.466343	0	0	0.0335808	-0.33035	0.0315087	0.917567	1.53723	0	0
2.04	2.98063	1.38695	-1.26174	0.529582	1.48574	0.932224	0.220542	-0.0777598	-0.241144	0.256097	-0.188695	0	0	-0.45324	-0.0668349	-0.292075	0.156661	-0.102401	0	0	-0.307436	0.0965251	-0.231361	-0.193353	-0.271603	-0.138871	0.813386	0.461106	0	0	0.039286	-0.328341	0.0299997	0.925149	1.54261	0	0
2.05	2.97063	1.38764	-1.25018	0.530061	1.4961	0.931063	0.213447	-0.071972	-0.246135	0.232493	-0.187784	0	0	-0.458596	-0.0729054	-0.294271	0.166712	-0.100344	0	0	-0.3072	0.09921	-0.231741	-0.19453	-0.271962	-0.137477	0.816748	0.458119	0	0	0.0436745	-0.326505	0.0292816	0.933114	1.54541	0	0
2.06	2.96259	1.38734	-1.24056	0.530458	1.50656	0.930036	0.210237	-0.0680089	-0.247937	0.229722	-0.188731	0	0	-0.464811	-0.078883	-0.296298	0.177039	-0.0989077	0	0	-0.307887	0.10217	-0.232427	-0.196114	-0.272484	-0.136481	0.820815	0.456117	0	0	0.0468328	-0.324463	0.0283935	0.941033	1.54765	0	0
2.07	2.95288	1.38413	-1.22893	0.530752	1.51713	0.929247	0.20917	-0.0637867	-0.248304	0.248613	-0.189837	0	0	-0.472737	-0.0870526	-0.301701	0.191284	-0.096817	0	0	-0.31185	0.107072	-0.233136	-0.198798	-0.273841	-0.13622	0.827838	0.453499	0	0	0.0481351	-0.321574	0.0252317	0.95108	1.55011	0	0
